<svg width="76" height="76" viewBox="0 0 76 76" fill="none" xmlns="http://www.w3.org/2000/svg">
<g clip-path="url(#clip0)">
<path d="M34.8324 72.7837C15.6272 72.7837 0 57.1571 0 37.9519C0 18.7466 15.6272 3.11945 34.8324 3.11945C41.5108 3.11945 48.0082 5.0224 53.6225 8.62596C54.7248 9.33565 55.0477 10.8049 54.338 11.91C53.626 13.0152 52.1597 13.3346 51.0545 12.6255C46.2096 9.5125 40.5987 7.8693 34.8324 7.8693C18.2456 7.8693 4.74985 21.3651 4.74985 37.9519C4.74985 54.5381 18.2456 68.0339 34.8324 68.0339C51.4187 68.0339 64.9144 54.5381 64.9144 37.9519C64.9144 36.9604 64.8669 35.9788 64.7753 35.0134C64.6489 33.7053 65.605 32.5463 66.9096 32.4199C68.2206 32.2993 69.3761 33.2496 69.5031 34.5542C69.6104 35.6721 69.6643 36.8056 69.6643 37.9519C69.6643 57.1571 54.0377 72.7837 34.8324 72.7837Z" fill="#00923A"/>
<path d="M38.7903 45.8681C38.1827 45.8681 37.5744 45.6367 37.1123 45.1717L22.8628 30.9222C21.9351 29.9939 21.9351 28.4898 22.8628 27.5621C23.7905 26.6344 25.2945 26.6344 26.2222 27.5621L38.7938 40.1337L71.9442 6.98274C72.8725 6.05503 74.3765 6.05503 75.3042 6.98274C76.2319 7.91044 76.2319 9.41448 75.3042 10.3422L40.4718 45.1746C40.0062 45.6367 39.3985 45.8681 38.7903 45.8681Z" fill="#00923A"/>
</g>
<defs>
<clipPath id="clip0">
<rect width="76" height="76" fill="white"/>
</clipPath>
</defs>
</svg>
