<svg width="16" height="22" viewBox="0 0 16 22" fill="none" xmlns="http://www.w3.org/2000/svg">
<path d="M12.773 20.8339H3.20129V22H12.773V20.8339Z" fill="#E41F27"/>
<path d="M12.773 20.2763H3.20129V18.2526C4.54725 19.2408 6.20628 19.8264 8.00045 19.8264C9.78311 19.8264 11.4323 19.2476 12.773 18.2708V20.2763Z" fill="#E41F27"/>
<path d="M10.8641 1.45984C10.8641 0.654827 11.5192 0 12.3233 0C13.1291 0 13.7836 0.655397 13.7836 1.45984V9.31761L10.8641 6.49652V5.90698V5.09144V1.45984Z" fill="#E41F27"/>
<path d="M8.847 5.37051C9.39365 5.37051 9.8929 5.68043 10.1423 6.16375C10.0829 6.17127 10.0252 6.19305 9.9795 6.23879C8.73162 7.48679 8.73162 9.51614 9.9795 10.764L10.2713 11.0559C10.1254 11.7202 9.52916 12.2009 8.847 12.2009C8.04121 12.2009 7.3866 11.5457 7.3866 10.7411V9.61825V6.83066C7.3866 6.02487 8.04121 5.37051 8.847 5.37051Z" fill="#E41F27"/>
<path d="M11.4206 12.208C11.4086 12.2064 11.3978 12.2014 11.3857 12.2014H10.2266C10.4341 12.0054 10.6056 11.7707 10.7161 11.4996L11.4243 12.2085C11.4228 12.208 11.4217 12.208 11.4206 12.208Z" fill="#E41F27"/>
<path d="M5.3693 5.37051C6.17436 5.37051 6.82883 6.02565 6.82883 6.83004V9.61768C6.82883 10.4231 6.17384 11.0777 5.3693 11.0777C4.56413 11.0777 3.90967 10.4224 3.90967 9.61768V6.83004C3.90941 6.02487 4.56413 5.37051 5.3693 5.37051Z" fill="#E41F27"/>
<path d="M1.89163 2.53873C2.69732 2.53873 3.35188 3.19381 3.35188 3.99831V6.82977V9.61736C3.35188 10.73 4.25678 11.6346 5.369 11.6346C5.95102 11.6346 6.47604 11.3874 6.8445 10.9916C6.90357 11.4647 7.12879 11.8868 7.4581 12.2003H2.92259C2.76836 12.2003 2.64385 12.3247 2.64385 12.4791C2.64385 12.6327 2.76841 12.7579 2.92259 12.7579H10.3296L7.86255 14.1574C7.72901 14.2328 7.68193 14.4035 7.75743 14.5366C7.80929 14.627 7.90269 14.6776 8.00029 14.6776C8.04681 14.6776 8.09421 14.6662 8.13751 14.6417L11.5228 12.7203C11.5334 12.7142 11.5399 12.7045 11.5492 12.6974C11.5655 12.6855 11.5803 12.674 11.5934 12.6593C11.6053 12.6457 11.6129 12.6316 11.6222 12.6164C11.631 12.6017 11.6399 12.5864 11.6462 12.569C11.6521 12.551 11.6544 12.5319 11.6577 12.5129C11.6588 12.5012 11.6641 12.4906 11.6641 12.4783C11.6641 12.4727 11.6609 12.4683 11.6609 12.4628C11.6604 12.4568 11.6631 12.4508 11.662 12.4454L12.8544 13.6372C12.9086 13.6916 12.9802 13.7189 13.0515 13.7189C13.1228 13.7189 13.1941 13.6916 13.2487 13.6372C13.358 13.5282 13.358 13.3525 13.2487 13.2429L10.3741 10.3691C9.36248 9.35724 9.34697 7.72398 10.3221 6.6898C10.3237 6.69566 10.3237 6.70095 10.3259 6.70681C10.3278 6.71215 10.3273 6.71853 10.3294 6.72382C10.3325 6.72968 10.3376 6.73445 10.3403 6.74016C10.3539 6.76723 10.3694 6.79269 10.3912 6.81375C10.3917 6.81427 10.3923 6.81509 10.3928 6.81608L15.5674 11.8164C15.5336 14.0585 14.5201 16.0662 12.9366 17.4317C12.893 17.4522 12.8584 17.4848 12.8304 17.5234C11.5194 18.6129 9.83528 19.2696 8.00143 19.2696C3.82785 19.2696 0.432984 15.8738 0.432984 11.7015V10.4316V3.99882C0.432051 3.19381 1.08667 2.53873 1.89163 2.53873Z" fill="#E41F27"/>
</svg>
