<svg width="93" height="135" viewBox="0 0 93 135" fill="none" xmlns="http://www.w3.org/2000/svg">
<path d="M75.7912 127.844H17.0557V135H75.7912V127.844Z" fill="#4C4C4C"/>
<path d="M75.7912 124.423H17.0557V112.005C25.3149 118.069 35.4953 121.662 46.505 121.662C57.4441 121.662 67.564 118.11 75.7912 112.116V124.423Z" fill="#4C4C4C"/>
<path d="M64.0762 8.9581C64.0762 4.01826 68.0957 0 73.0301 0C77.9747 0 81.9911 4.02176 81.9911 8.9581V57.1762L64.0762 39.865V36.2474V31.2429V8.9581Z" fill="#4C4C4C"/>
<path d="M51.6984 32.9554C55.0528 32.9554 58.1164 34.8571 59.6471 37.823C59.2824 37.8692 58.9282 38.0028 58.6478 38.2835C50.9903 45.9416 50.9903 58.3945 58.6478 66.0517L60.4385 67.843C59.543 71.9192 55.8844 74.8691 51.6984 74.8691C46.7538 74.8691 42.7368 70.8483 42.7368 65.9113V59.0211V41.9154C42.7368 36.9708 46.7538 32.9554 51.6984 32.9554Z" fill="#4C4C4C"/>
<path d="M67.4903 74.9127C67.4168 74.9029 67.35 74.8723 67.2761 74.8723H60.1631C61.4363 73.6697 62.4887 72.2294 63.1668 70.5657L67.5129 74.9159C67.5033 74.9127 67.4967 74.9127 67.4903 74.9127Z" fill="#4C4C4C"/>
<path d="M30.3572 32.9554C35.2974 32.9554 39.3134 36.9756 39.3134 41.9116V59.0176C39.3134 63.96 35.2942 67.9766 30.3572 67.9766C25.4164 67.9766 21.4004 63.9555 21.4004 59.0176V41.9116C21.3988 36.9708 25.4164 32.9554 30.3572 32.9554Z" fill="#4C4C4C"/>
<path d="M9.01768 15.5786C13.9617 15.5786 17.9783 19.5984 17.9783 24.5351V41.91V59.0156C17.9783 65.8432 23.5311 71.3944 30.3561 71.3944C33.9276 71.3944 37.1493 69.8771 39.4103 67.4487C39.7728 70.3519 41.1548 72.9416 43.1756 74.8656H15.344C14.3976 74.8656 13.6336 75.629 13.6336 76.5764C13.6336 77.5187 14.398 78.2868 15.344 78.2868H60.7961L45.6574 86.8749C44.838 87.3376 44.549 88.3848 45.0124 89.202C45.3306 89.7564 45.9037 90.0673 46.5026 90.0673C46.7881 90.0673 47.0789 89.997 47.3447 89.8468L68.1179 78.0565C68.1831 78.0192 68.2229 77.9594 68.2802 77.9161C68.3801 77.8426 68.4708 77.7723 68.551 77.6822C68.6245 77.5988 68.671 77.512 68.7283 77.4187C68.7817 77.3287 68.8365 77.2345 68.8753 77.1279C68.9116 77.0178 68.9256 76.9003 68.9456 76.7839C68.9523 76.7119 68.9854 76.6467 68.9854 76.5716C68.9854 76.5369 68.9657 76.5099 68.9657 76.4765C68.9622 76.4395 68.979 76.4029 68.9724 76.3692L76.2894 83.6827C76.6216 84.0165 77.0614 84.1839 77.4986 84.1839C77.9365 84.1839 78.3737 84.0165 78.7085 83.6827C79.3793 83.0141 79.3793 81.9356 78.7085 81.2635L61.0695 63.6287C54.8615 57.4194 54.7664 47.3972 60.7503 41.0511C60.7602 41.087 60.7602 41.1195 60.7735 41.1554C60.785 41.1882 60.7818 41.2274 60.7949 41.2598C60.814 41.2958 60.8451 41.3251 60.862 41.3601C60.9454 41.5262 61.0405 41.6824 61.1742 41.8116C61.1774 41.8148 61.1809 41.8199 61.1841 41.826L92.9371 72.5098C92.7299 86.268 86.5108 98.5882 76.7934 106.967C76.5261 107.093 76.3139 107.293 76.142 107.53C68.0969 114.216 57.7628 118.245 46.5096 118.245C20.899 118.245 0.0669006 97.4072 0.0669006 71.8049V64.0118V24.5382C0.0611726 19.5984 4.07816 15.5786 9.01768 15.5786Z" fill="#4C4C4C"/>
</svg>
